<svg width="1400" height="900" xmlns="http://www.w3.org/2000/svg" font-family="'Helvetica Neue', Helvetica, Arial, sans-serif">
  <defs>
    <marker id="arr" markerWidth="7" markerHeight="7" refX="5" refY="3" orient="auto">
      <path d="M0,0 L0,6 L7,3 z" fill="#B0A898"/>
    </marker>
    <marker id="arr-r" markerWidth="7" markerHeight="7" refX="5" refY="3" orient="auto">
      <path d="M0,0 L0,6 L7,3 z" fill="#E83425"/>
    </marker>
  </defs>

  <!-- ── Background ── -->
  <rect width="1400" height="900" fill="#F7F4EE"/>

  <!-- ══════════════════════════════════════════════
       HEADER
  ══════════════════════════════════════════════ -->
  <rect x="0" y="0" width="1400" height="60" fill="#0A0A0A"/>
  <text x="44" y="34" fill="#F7F4EE" font-size="18" font-weight="700" letter-spacing="4">ATLAS REPORT AGENT</text>
  <text x="44" y="51" fill="#666" font-size="10" letter-spacing="3">SYSTEM ARCHITECTURE · v3.2.0</text>
  <text x="1356" y="34" fill="#E83425" font-size="10" letter-spacing="1" text-anchor="end">atlas-essay.vercel.app</text>
  <text x="1356" y="51" fill="#555" font-size="9" text-anchor="end">React 18 + Vite · Supabase · Vercel Functions</text>

  <!-- ══════════════════════════════════════════════
       LAYER 1 — BROWSER CLIENT
  ══════════════════════════════════════════════ -->
  <rect x="32" y="76" width="1336" height="288" rx="6" fill="#FFFFFF" stroke="#DDD6C8" stroke-width="1.5"/>
  <!-- section header -->
  <rect x="32" y="76" width="1336" height="30" rx="6" fill="#EDE8DF"/>
  <rect x="32" y="96" width="1336" height="10" fill="#EDE8DF"/>
  <text x="52" y="96" fill="#0A0A0A" font-size="10" font-weight="700" letter-spacing="2.5">BROWSER CLIENT</text>
  <text x="196" y="96" fill="#999" font-size="10" letter-spacing="1.5">React 18 · Vite 5 · Single-file HTML</text>

  <!-- UI PAGES label -->
  <text x="52" y="124" fill="#AAA" font-size="8.5" letter-spacing="2">UI PAGES</text>

  <!-- page boxes (y=130, height=50) -->
  <!-- Home -->
  <rect x="52"  y="130" width="148" height="50" rx="3" fill="#F7F4EE" stroke="#D8D2C5" stroke-width="1"/>
  <text x="126" y="150" fill="#0A0A0A" font-size="11" font-weight="700" text-anchor="middle">HOME</text>
  <text x="126" y="163" fill="#888" font-size="8.5" text-anchor="middle">Prompt · Templates · AI News</text>
  <text x="126" y="175" fill="#888" font-size="8.5" text-anchor="middle">Ticker · Random Dice</text>
  <!-- Running -->
  <rect x="210" y="130" width="160" height="50" rx="3" fill="#F7F4EE" stroke="#D8D2C5" stroke-width="1"/>
  <text x="290" y="150" fill="#0A0A0A" font-size="11" font-weight="700" text-anchor="middle">RUNNING</text>
  <text x="290" y="163" fill="#888" font-size="8.5" text-anchor="middle">Streaming · Progress Bar</text>
  <text x="290" y="175" fill="#888" font-size="8.5" text-anchor="middle">Timeline · Demo Mode</text>
  <!-- Report -->
  <rect x="380" y="130" width="168" height="50" rx="3" fill="#F7F4EE" stroke="#D8D2C5" stroke-width="1"/>
  <text x="464" y="150" fill="#0A0A0A" font-size="11" font-weight="700" text-anchor="middle">REPORT</text>
  <text x="464" y="163" fill="#888" font-size="8.5" text-anchor="middle">Dual-col · Marginalia · Edit</text>
  <text x="464" y="175" fill="#888" font-size="8.5" text-anchor="middle">Follow-up · Rating · Export</text>
  <!-- Library -->
  <rect x="558" y="130" width="158" height="50" rx="3" fill="#F7F4EE" stroke="#D8D2C5" stroke-width="1"/>
  <text x="637" y="150" fill="#0A0A0A" font-size="11" font-weight="700" text-anchor="middle">LIBRARY</text>
  <text x="637" y="163" fill="#888" font-size="8.5" text-anchor="middle">Search · Filter · Star</text>
  <text x="637" y="175" fill="#888" font-size="8.5" text-anchor="middle">Stats Panel · Benchmark</text>
  <!-- Sources -->
  <rect x="726" y="130" width="158" height="50" rx="3" fill="#F7F4EE" stroke="#D8D2C5" stroke-width="1"/>
  <text x="805" y="150" fill="#0A0A0A" font-size="11" font-weight="700" text-anchor="middle">SOURCES</text>
  <text x="805" y="163" fill="#888" font-size="8.5" text-anchor="middle">File · URL · DB · API</text>
  <text x="805" y="175" fill="#888" font-size="8.5" text-anchor="middle">Quality Rating A / B / C</text>
  <!-- Settings -->
  <rect x="894" y="130" width="158" height="50" rx="3" fill="#F7F4EE" stroke="#D8D2C5" stroke-width="1"/>
  <text x="973" y="150" fill="#0A0A0A" font-size="11" font-weight="700" text-anchor="middle">SETTINGS</text>
  <text x="973" y="163" fill="#888" font-size="8.5" text-anchor="middle">Models · Export · Perms</text>
  <text x="973" y="175" fill="#888" font-size="8.5" text-anchor="middle">Themes · Profile</text>
  <!-- Team -->
  <rect x="1062" y="130" width="148" height="50" rx="3" fill="#F7F4EE" stroke="#D8D2C5" stroke-width="1"/>
  <text x="1136" y="150" fill="#0A0A0A" font-size="11" font-weight="700" text-anchor="middle">TEAM</text>
  <text x="1136" y="163" fill="#888" font-size="8.5" text-anchor="middle">Workspace · Members</text>
  <text x="1136" y="175" fill="#888" font-size="8.5" text-anchor="middle">Reports · Keys Import</text>
  <!-- Export -->
  <rect x="1220" y="130" width="136" height="50" rx="3" fill="#F7F4EE" stroke="#D8D2C5" stroke-width="1"/>
  <text x="1288" y="150" fill="#0A0A0A" font-size="11" font-weight="700" text-anchor="middle">EXPORT</text>
  <text x="1288" y="163" fill="#888" font-size="8.5" text-anchor="middle">PDF · DOCX · MD</text>
  <text x="1288" y="175" fill="#888" font-size="8.5" text-anchor="middle">Notion · Link · Batch</text>

  <!-- HARNESS label -->
  <text x="52" y="205" fill="#AAA" font-size="8.5" letter-spacing="2">HARNESS ENGINEERING — ETCLOVG + M</text>

  <!-- harness strip (y=213, height=52) -->
  <!-- C · Context — red accent -->
  <rect x="52"   y="213" width="152" height="52" rx="3" fill="#FFF6F5" stroke="#E83425" stroke-width="1.2"/>
  <text x="128"  y="231" fill="#E83425" font-size="9.5" font-weight="700" letter-spacing="1" text-anchor="middle">C · CONTEXT  P0</text>
  <text x="128"  y="245" fill="#555" font-size="8" text-anchor="middle">三区 System Prompt 架构</text>
  <text x="128"  y="257" fill="#555" font-size="8" text-anchor="middle">Role / Structure / &lt;context&gt;</text>

  <rect x="214"  y="213" width="152" height="52" rx="3" fill="#F7F4EE" stroke="#CDC7BC" stroke-width="1"/>
  <text x="290"  y="231" fill="#0A0A0A" font-size="9.5" font-weight="700" letter-spacing="1" text-anchor="middle">E · EXECUTION  P1</text>
  <text x="290"  y="245" fill="#555" font-size="8" text-anchor="middle">生成模式预设 · 按模型调参</text>
  <text x="290"  y="257" fill="#555" font-size="8" text-anchor="middle">Strict / Balanced / Explore</text>

  <rect x="376"  y="213" width="152" height="52" rx="3" fill="#F7F4EE" stroke="#CDC7BC" stroke-width="1"/>
  <text x="452"  y="231" fill="#0A0A0A" font-size="9.5" font-weight="700" letter-spacing="1" text-anchor="middle">V · VERIFY  P2</text>
  <text x="452"  y="245" fill="#555" font-size="8" text-anchor="middle">结构校验 · 截断检测 · 自动续写</text>
  <text x="452"  y="257" fill="#555" font-size="8" text-anchor="middle">评分反馈 · Warning Banner</text>

  <rect x="538"  y="213" width="152" height="52" rx="3" fill="#F7F4EE" stroke="#CDC7BC" stroke-width="1"/>
  <text x="614"  y="231" fill="#0A0A0A" font-size="9.5" font-weight="700" letter-spacing="1" text-anchor="middle">L · LIFECYCLE  P3</text>
  <text x="614"  y="245" fill="#555" font-size="8" text-anchor="middle">大纲先行 · 分节并行生成</text>
  <text x="614"  y="257" fill="#555" font-size="8" text-anchor="middle">节点工作流 · 章节精修</text>

  <rect x="700"  y="213" width="152" height="52" rx="3" fill="#F7F4EE" stroke="#CDC7BC" stroke-width="1"/>
  <text x="776"  y="231" fill="#0A0A0A" font-size="9.5" font-weight="700" letter-spacing="1" text-anchor="middle">T · TOOLING  P4</text>
  <text x="776"  y="245" fill="#555" font-size="8" text-anchor="middle">Agentic Tool Use · MCP</text>
  <text x="776"  y="257" fill="#555" font-size="8" text-anchor="middle">Tavily · Jina · OAuth 2.1</text>

  <rect x="862"  y="213" width="162" height="52" rx="3" fill="#F7F4EE" stroke="#CDC7BC" stroke-width="1"/>
  <text x="943"  y="231" fill="#0A0A0A" font-size="9.5" font-weight="700" letter-spacing="1" text-anchor="middle">O · OBSERVABILITY  P5</text>
  <text x="943"  y="245" fill="#555" font-size="8" text-anchor="middle">元数据 · 统计面板</text>
  <text x="943"  y="257" fill="#555" font-size="8" text-anchor="middle">Prompt 版本 A/B 追踪</text>

  <rect x="1034" y="213" width="162" height="52" rx="3" fill="#F7F4EE" stroke="#CDC7BC" stroke-width="1"/>
  <text x="1115" y="231" fill="#0A0A0A" font-size="9.5" font-weight="700" letter-spacing="1" text-anchor="middle">G · GOVERNANCE  P6</text>
  <text x="1115" y="245" fill="#555" font-size="8" text-anchor="middle">角色强制 · 成本粗估</text>
  <text x="1115" y="257" fill="#555" font-size="8" text-anchor="middle">每日软限制 · 链接安全</text>

  <rect x="1206" y="213" width="150" height="52" rx="3" fill="#F7F4EE" stroke="#CDC7BC" stroke-width="1"/>
  <text x="1281" y="231" fill="#0A0A0A" font-size="9.5" font-weight="700" letter-spacing="1" text-anchor="middle">M · MEMORY</text>
  <text x="1281" y="245" fill="#555" font-size="8" text-anchor="middle">写作画像 · 实体记忆</text>
  <text x="1281" y="257" fill="#555" font-size="8" text-anchor="middle">评分反哺 · &lt;user_memory&gt;</text>

  <!-- storage row (y=280 h=72) -->
  <rect x="52"   y="280" width="280" height="72" rx="3" fill="#F2EDE3" stroke="#CCC6BA" stroke-width="1" stroke-dasharray="5,3"/>
  <text x="192"  y="299" fill="#777" font-size="9" font-weight="600" letter-spacing="1" text-anchor="middle">localStorage</text>
  <text x="192"  y="313" fill="#999" font-size="8" text-anchor="middle">reports · models · settings</text>
  <text x="192"  y="325" fill="#999" font-size="8" text-anchor="middle">templates · news cache · tweaks</text>
  <text x="192"  y="337" fill="#999" font-size="8" text-anchor="middle">permissions · user profile</text>

  <rect x="344"  y="280" width="248" height="72" rx="3" fill="#F2EDE3" stroke="#CCC6BA" stroke-width="1" stroke-dasharray="5,3"/>
  <text x="468"  y="299" fill="#777" font-size="9" font-weight="600" letter-spacing="1" text-anchor="middle">Supabase JS Client</text>
  <text x="468"  y="313" fill="#999" font-size="8" text-anchor="middle">Auth session · JWT</text>
  <text x="468"  y="325" fill="#999" font-size="8" text-anchor="middle">Real-time sync</text>
  <text x="468"  y="337" fill="#999" font-size="8" text-anchor="middle">Direct DB queries</text>

  <rect x="604"  y="280" width="240" height="72" rx="3" fill="#F2EDE3" stroke="#CCC6BA" stroke-width="1" stroke-dasharray="5,3"/>
  <text x="724"  y="299" fill="#777" font-size="9" font-weight="600" letter-spacing="1" text-anchor="middle">React Hooks</text>
  <text x="724"  y="313" fill="#999" font-size="8" text-anchor="middle">useAuth · usePermission</text>
  <text x="724"  y="325" fill="#999" font-size="8" text-anchor="middle">useTweaks · useAINews</text>
  <text x="724"  y="337" fill="#999" font-size="8" text-anchor="middle">useCustomTemplates</text>

  <rect x="856"  y="280" width="248" height="72" rx="3" fill="#F2EDE3" stroke="#CCC6BA" stroke-width="1" stroke-dasharray="5,3"/>
  <text x="980"  y="299" fill="#777" font-size="9" font-weight="600" letter-spacing="1" text-anchor="middle">Personal API Keys (client)</text>
  <text x="980"  y="313" fill="#999" font-size="8" text-anchor="middle">直连 AI 端点</text>
  <text x="980"  y="325" fill="#999" font-size="8" text-anchor="middle">无服务端代理</text>
  <text x="980"  y="337" fill="#999" font-size="8" text-anchor="middle">SSE streaming</text>

  <rect x="1116" y="280" width="240" height="72" rx="3" fill="#F2EDE3" stroke="#CCC6BA" stroke-width="1" stroke-dasharray="5,3"/>
  <text x="1236" y="299" fill="#777" font-size="9" font-weight="600" letter-spacing="1" text-anchor="middle">OpenAI-Compat Stream</text>
  <text x="1236" y="313" fill="#999" font-size="8" text-anchor="middle">tool_calls · SSE chunks</text>
  <text x="1236" y="325" fill="#999" font-size="8" text-anchor="middle">max_tokens guard 131072</text>
  <text x="1236" y="337" fill="#999" font-size="8" text-anchor="middle">validateReport() 五项校验</text>

  <!-- ── Arrow: Client → API ── -->
  <line x1="700" y1="364" x2="700" y2="398" stroke="#B0A898" stroke-width="1.5" marker-end="url(#arr)"/>
  <rect x="566" y="370" width="268" height="18" rx="3" fill="#F7F4EE"/>
  <text x="700" y="383" fill="#888" font-size="8.5" letter-spacing="0.5" text-anchor="middle">Supabase JWT · Team API Key (encrypted proxy)</text>

  <!-- ══════════════════════════════════════════════
       LAYER 2 — VERCEL API ROUTES
  ══════════════════════════════════════════════ -->
  <rect x="32" y="400" width="1336" height="118" rx="6" fill="#0A0A0A"/>
  <!-- header text -->
  <text x="52"   y="422" fill="#F7F4EE" font-size="10" font-weight="700" letter-spacing="2.5">VERCEL API ROUTES</text>
  <text x="240"  y="422" fill="#666" font-size="10" letter-spacing="1">Node.js 20 · Serverless · 12 函数上限 · maxDuration 60s</text>
  <text x="1356" y="422" fill="#555" font-size="9" text-anchor="end">api/_lib / auth.js · crypto.js · supabase.js · mcp.js</text>

  <!-- function boxes -->
  <rect x="52"   y="430" width="174" height="76" rx="3" fill="#1C1C1C" stroke="#333" stroke-width="1"/>
  <text x="139"  y="452" fill="#F7F4EE" font-size="10.5" font-weight="700" text-anchor="middle">/api/generate</text>
  <text x="139"  y="467" fill="#888" font-size="8.5" text-anchor="middle">流式生成 · 团队 Key 代理</text>
  <text x="139"  y="479" fill="#888" font-size="8.5" text-anchor="middle">AES 解密 → AI 模型</text>
  <text x="139"  y="491" fill="#555" font-size="8" text-anchor="middle">SSE passthrough</text>

  <rect x="238"  y="430" width="174" height="76" rx="3" fill="#1C1C1C" stroke="#333" stroke-width="1"/>
  <text x="325"  y="452" fill="#F7F4EE" font-size="10.5" font-weight="700" text-anchor="middle">/api/reports</text>
  <text x="325"  y="467" fill="#888" font-size="8.5" text-anchor="middle">CRUD · 云端存储</text>
  <text x="325"  y="479" fill="#888" font-size="8.5" text-anchor="middle">Team 隔离 · Auth 校验</text>
  <text x="325"  y="491" fill="#555" font-size="8" text-anchor="middle">GET /reports/[id]</text>

  <rect x="424"  y="430" width="174" height="76" rx="3" fill="#1C1C1C" stroke="#333" stroke-width="1"/>
  <text x="511"  y="452" fill="#F7F4EE" font-size="10.5" font-weight="700" text-anchor="middle">/api/tasks</text>
  <text x="511"  y="467" fill="#888" font-size="8.5" text-anchor="middle">后台任务队列</text>
  <text x="511"  y="479" fill="#888" font-size="8.5" text-anchor="middle">创建 → QStash → worker</text>
  <text x="511"  y="491" fill="#555" font-size="8" text-anchor="middle">queued / running / done</text>

  <rect x="610"  y="430" width="174" height="76" rx="3" fill="#1C1C1C" stroke="#333" stroke-width="1"/>
  <text x="697"  y="452" fill="#F7F4EE" font-size="10.5" font-weight="700" text-anchor="middle">/api/teams</text>
  <text x="697"  y="467" fill="#888" font-size="8.5" text-anchor="middle">团队管理 · 成员角色</text>
  <text x="697"  y="479" fill="#888" font-size="8.5" text-anchor="middle">报告 / Keys 批量导入</text>
  <text x="697"  y="491" fill="#555" font-size="8" text-anchor="middle">catch-all [...path].js</text>

  <rect x="796"  y="430" width="174" height="76" rx="3" fill="#1C1C1C" stroke="#333" stroke-width="1"/>
  <text x="883"  y="452" fill="#F7F4EE" font-size="10.5" font-weight="700" text-anchor="middle">/api/keys</text>
  <text x="883"  y="467" fill="#888" font-size="8.5" text-anchor="middle">AES-256 加密存储</text>
  <text x="883"  y="479" fill="#888" font-size="8.5" text-anchor="middle">CRUD · Provider 隔离</text>
  <text x="883"  y="491" fill="#555" font-size="8" text-anchor="middle">keys/index · keys/[id]</text>

  <rect x="982"  y="430" width="174" height="76" rx="3" fill="#1C1C1C" stroke="#333" stroke-width="1"/>
  <text x="1069" y="452" fill="#F7F4EE" font-size="10.5" font-weight="700" text-anchor="middle">/api/search</text>
  <text x="1069" y="467" fill="#888" font-size="8.5" text-anchor="middle">Tavily · MCP Proxy</text>
  <text x="1069" y="479" fill="#888" font-size="8.5" text-anchor="middle">HTTP MCP · OAuth 2.1</text>
  <text x="1069" y="491" fill="#555" font-size="8" text-anchor="middle">折叠零新增函数</text>

  <rect x="1168" y="430" width="188" height="76" rx="3" fill="#1C1C1C" stroke="#333" stroke-width="1"/>
  <text x="1262" y="452" fill="#F7F4EE" font-size="10.5" font-weight="700" text-anchor="middle">/api/me</text>
  <text x="1262" y="467" fill="#888" font-size="8.5" text-anchor="middle">用户 Profile</text>
  <text x="1262" y="479" fill="#888" font-size="8.5" text-anchor="middle">Supabase Auth verify</text>
  <text x="1262" y="491" fill="#555" font-size="8" text-anchor="middle">display_name · avatar</text>

  <!-- ── Arrows: API → bottom layers ── -->
  <!-- to Supabase -->
  <line x1="250" y1="518" x2="250" y2="554" stroke="#B0A898" stroke-width="1.5" marker-end="url(#arr)"/>
  <!-- to AI Models -->
  <line x1="700" y1="518" x2="700" y2="554" stroke="#B0A898" stroke-width="1.5" marker-end="url(#arr)"/>
  <!-- to External -->
  <line x1="1180" y1="518" x2="1180" y2="554" stroke="#B0A898" stroke-width="1.5" marker-end="url(#arr)"/>

  <!-- ══════════════════════════════════════════════
       LAYER 3 — DATA & SERVICES
  ══════════════════════════════════════════════ -->

  <!-- ── Supabase ── -->
  <rect x="32"  y="556" width="420" height="286" rx="6" fill="#FFFFFF" stroke="#DDD6C8" stroke-width="1.5"/>
  <rect x="32"  y="556" width="420" height="30" rx="6" fill="#E8F8F1"/>
  <rect x="32"  y="578" width="420" height="8"  fill="#E8F8F1"/>
  <text x="52"  y="576" fill="#0A0A0A" font-size="10" font-weight="700" letter-spacing="2">SUPABASE</text>
  <text x="152" y="576" fill="#3ECF8E" font-size="9.5" font-weight="600">PostgreSQL 15 · Auth · RLS</text>

  <text x="52"  y="606" fill="#AAA" font-size="8.5" letter-spacing="1.5">DATABASE TABLES</text>

  <rect x="52"  y="614" width="180" height="38" rx="3" fill="#F2FCF7" stroke="#C0E8D4" stroke-width="1"/>
  <text x="142" y="630" fill="#0A0A0A" font-size="10" font-weight="600" text-anchor="middle">auth.users</text>
  <text x="142" y="645" fill="#666" font-size="8" text-anchor="middle">Supabase 内置认证</text>

  <rect x="244" y="614" width="180" height="38" rx="3" fill="#F2FCF7" stroke="#C0E8D4" stroke-width="1"/>
  <text x="334" y="630" fill="#0A0A0A" font-size="10" font-weight="600" text-anchor="middle">profiles</text>
  <text x="334" y="645" fill="#666" font-size="8" text-anchor="middle">display_name · avatar_url</text>

  <rect x="52"  y="662" width="180" height="38" rx="3" fill="#F2FCF7" stroke="#C0E8D4" stroke-width="1"/>
  <text x="142" y="678" fill="#0A0A0A" font-size="10" font-weight="600" text-anchor="middle">teams</text>
  <text x="142" y="693" fill="#666" font-size="8" text-anchor="middle">id · name · created_by</text>

  <rect x="244" y="662" width="180" height="38" rx="3" fill="#F2FCF7" stroke="#C0E8D4" stroke-width="1"/>
  <text x="334" y="678" fill="#0A0A0A" font-size="10" font-weight="600" text-anchor="middle">team_members</text>
  <text x="334" y="693" fill="#666" font-size="8" text-anchor="middle">team_id · user_id · role</text>

  <rect x="52"  y="710" width="180" height="38" rx="3" fill="#F2FCF7" stroke="#C0E8D4" stroke-width="1"/>
  <text x="142" y="726" fill="#0A0A0A" font-size="10" font-weight="600" text-anchor="middle">reports</text>
  <text x="142" y="741" fill="#666" font-size="8" text-anchor="middle">uuid · team_id · content · meta</text>

  <rect x="244" y="710" width="180" height="38" rx="3" fill="#F2FCF7" stroke="#C0E8D4" stroke-width="1"/>
  <text x="334" y="726" fill="#0A0A0A" font-size="10" font-weight="600" text-anchor="middle">tasks</text>
  <text x="334" y="741" fill="#666" font-size="8" text-anchor="middle">queued · running · done · failed</text>

  <rect x="52"  y="758" width="372" height="38" rx="3" fill="#F2FCF7" stroke="#C0E8D4" stroke-width="1"/>
  <text x="238" y="774" fill="#0A0A0A" font-size="10" font-weight="600" text-anchor="middle">api_keys</text>
  <text x="238" y="789" fill="#666" font-size="8" text-anchor="middle">AES-256 key_enc · team_id · provider · created_by</text>

  <text x="52"  y="826" fill="#AAA" font-size="8.5" letter-spacing="1.5">CI/CD DEPLOY</text>
  <rect x="52"  y="832" width="372" height="28" rx="3" fill="#F7F4EE" stroke="#D8D2C5" stroke-width="1"/>
  <text x="238" y="846" fill="#555" font-size="8.5" text-anchor="middle">GitHub Actions → npm run build → dist/ → Vercel / gh-pages</text>

  <!-- ── AI MODELS ── -->
  <rect x="468" y="556" width="468" height="286" rx="6" fill="#FFFFFF" stroke="#DDD6C8" stroke-width="1.5"/>
  <rect x="468" y="556" width="468" height="30" rx="6" fill="#FFF0EE"/>
  <rect x="468" y="578" width="468" height="8"  fill="#FFF0EE"/>
  <text x="488" y="576" fill="#0A0A0A" font-size="10" font-weight="700" letter-spacing="2">AI MODELS</text>
  <text x="574" y="576" fill="#E83425" font-size="9.5" font-weight="600">OpenAI-Compatible REST · SSE Streaming · Tool Use</text>

  <text x="488" y="606" fill="#AAA" font-size="8.5" letter-spacing="1.5">BUILT-IN PROVIDERS</text>

  <rect x="488" y="614" width="200" height="62" rx="3" fill="#FFF8F6" stroke="#F0C0BB" stroke-width="1.2"/>
  <text x="588" y="633" fill="#0A0A0A" font-size="10.5" font-weight="700" text-anchor="middle">Anthropic Claude</text>
  <text x="588" y="648" fill="#666" font-size="8.5" text-anchor="middle">3.7 Sonnet · Opus · Haiku</text>
  <text x="588" y="661" fill="#AAA" font-size="7.5" text-anchor="middle">anthropic.com/v1</text>
  <text x="588" y="671" fill="#AAA" font-size="7.5" text-anchor="middle">thinking blocks · streaming</text>

  <rect x="704" y="614" width="200" height="62" rx="3" fill="#F7F4EE" stroke="#D8D2C5" stroke-width="1"/>
  <text x="804" y="633" fill="#0A0A0A" font-size="10.5" font-weight="700" text-anchor="middle">OpenAI</text>
  <text x="804" y="648" fill="#666" font-size="8.5" text-anchor="middle">GPT-4o · GPT-4o mini · o1</text>
  <text x="804" y="661" fill="#AAA" font-size="7.5" text-anchor="middle">api.openai.com/v1</text>
  <text x="804" y="671" fill="#AAA" font-size="7.5" text-anchor="middle">function calling</text>

  <rect x="488" y="688" width="200" height="62" rx="3" fill="#F7F4EE" stroke="#D8D2C5" stroke-width="1"/>
  <text x="588" y="707" fill="#0A0A0A" font-size="10.5" font-weight="700" text-anchor="middle">Google Gemini</text>
  <text x="588" y="722" fill="#666" font-size="8.5" text-anchor="middle">Gemini 2.0 Flash · Pro</text>
  <text x="588" y="735" fill="#AAA" font-size="7.5" text-anchor="middle">generativelanguage.googleapis.com</text>
  <text x="588" y="745" fill="#AAA" font-size="7.5" text-anchor="middle">multimodal</text>

  <rect x="704" y="688" width="200" height="62" rx="3" fill="#F7F4EE" stroke="#D8D2C5" stroke-width="1"/>
  <text x="804" y="707" fill="#0A0A0A" font-size="10.5" font-weight="700" text-anchor="middle">DeepSeek</text>
  <text x="804" y="722" fill="#666" font-size="8.5" text-anchor="middle">V3 · R1 (reasoning)</text>
  <text x="804" y="735" fill="#AAA" font-size="7.5" text-anchor="middle">api.deepseek.com/v1</text>
  <text x="804" y="745" fill="#AAA" font-size="7.5" text-anchor="middle">chain-of-thought</text>

  <rect x="488" y="762" width="416" height="48" rx="3" fill="#F7F4EE" stroke="#D8D2C5" stroke-width="1" stroke-dasharray="5,3"/>
  <text x="696" y="782" fill="#666" font-size="9.5" font-weight="600" text-anchor="middle">+ Custom Model</text>
  <text x="696" y="797" fill="#888" font-size="8" text-anchor="middle">任意 OpenAI-Compatible 端点 · 自定义 API URL · Key · Provider 名称</text>

  <text x="488" y="828" fill="#AAA" font-size="8.5" letter-spacing="1.5">AGENTIC TOOL USE</text>
  <rect x="488" y="832" width="416" height="28" rx="3" fill="#FFF6F5" stroke="#F0C0BB" stroke-width="1"/>
  <text x="696" y="846" fill="#555" font-size="8.5" text-anchor="middle">web_search · fetch_url · per-provider 分级 · 客户端循环 · 全程优雅降级</text>

  <!-- ── EXTERNAL SERVICES ── -->
  <rect x="952"  y="556" width="416" height="286" rx="6" fill="#FFFFFF" stroke="#DDD6C8" stroke-width="1.5"/>
  <rect x="952"  y="556" width="416" height="30" rx="6" fill="#EDE8DF"/>
  <rect x="952"  y="578" width="416" height="8"  fill="#EDE8DF"/>
  <text x="972"  y="576" fill="#0A0A0A" font-size="10" font-weight="700" letter-spacing="2">EXTERNAL SERVICES</text>

  <text x="972"  y="606" fill="#AAA" font-size="8.5" letter-spacing="1.5">INTEGRATIONS</text>

  <rect x="972"  y="614" width="178" height="62" rx="3" fill="#F7F4EE" stroke="#D8D2C5" stroke-width="1"/>
  <text x="1061" y="633" fill="#0A0A0A" font-size="10.5" font-weight="700" text-anchor="middle">Upstash QStash</text>
  <text x="1061" y="648" fill="#666" font-size="8.5" text-anchor="middle">后台任务队列</text>
  <text x="1061" y="661" fill="#AAA" font-size="7.5" text-anchor="middle">关 Tab 继续生成 · HMAC 签名验证</text>

  <rect x="1162" y="614" width="178" height="62" rx="3" fill="#F7F4EE" stroke="#D8D2C5" stroke-width="1"/>
  <text x="1251" y="633" fill="#0A0A0A" font-size="10.5" font-weight="700" text-anchor="middle">Tavily Search</text>
  <text x="1251" y="648" fill="#666" font-size="8.5" text-anchor="middle">实时网络搜索</text>
  <text x="1251" y="661" fill="#AAA" font-size="7.5" text-anchor="middle">Research 增强 · 结果注入 &lt;context&gt;</text>

  <rect x="972"  y="688" width="178" height="62" rx="3" fill="#F7F4EE" stroke="#D8D2C5" stroke-width="1"/>
  <text x="1061" y="707" fill="#0A0A0A" font-size="10.5" font-weight="700" text-anchor="middle">Jina Reader</text>
  <text x="1061" y="722" fill="#666" font-size="8.5" text-anchor="middle">URL 正文抓取</text>
  <text x="1061" y="735" fill="#AAA" font-size="7.5" text-anchor="middle">数据源 URL → Markdown → &lt;context&gt;</text>

  <rect x="1162" y="688" width="178" height="62" rx="3" fill="#F7F4EE" stroke="#D8D2C5" stroke-width="1"/>
  <text x="1251" y="707" fill="#0A0A0A" font-size="10.5" font-weight="700" text-anchor="middle">Google Translate</text>
  <text x="1251" y="722" fill="#666" font-size="8.5" text-anchor="middle">AI 新闻自动翻译</text>
  <text x="1251" y="735" fill="#AAA" font-size="7.5" text-anchor="middle">Hacker News EN → 中文 · 当日缓存</text>

  <text x="972"  y="770" fill="#AAA" font-size="8.5" letter-spacing="1.5">REMOTE HTTP MCP</text>
  <rect x="972"  y="776" width="368" height="44" rx="3" fill="#F7F4EE" stroke="#D8D2C5" stroke-width="1"/>
  <text x="1156" y="793" fill="#555" font-size="8.5" text-anchor="middle">JSON-RPC · SSE · Session (4 模式)</text>
  <text x="1156" y="807" fill="#888" font-size="7.5" text-anchor="middle">OAuth 2.1 PKCE · DCR · 折叠进 /api/search 零新增函数</text>

  <text x="972"  y="836" fill="#AAA" font-size="8.5" letter-spacing="1.5">HACKER NEWS API</text>
  <rect x="972"  y="842" width="368" height="28" rx="3" fill="#F7F4EE" stroke="#D8D2C5" stroke-width="1"/>
  <text x="1156" y="857" fill="#555" font-size="8" text-anchor="middle">algolia.hn · AI 关键词过滤 · points ≥ 3 · 每日轮播</text>

  <!-- ── Footer ── -->
  <rect x="0" y="858" width="1400" height="42" fill="#EDE8DF"/>
  <line x1="0" y1="858" x2="1400" y2="858" stroke="#D4CDBF" stroke-width="1"/>
  <text x="44" y="879" fill="#888" font-size="8.5" letter-spacing="1">DEPLOYMENT: Vercel (frontend static + API Routes) · GitHub Actions CI/CD · main → build → dist/</text>
  <text x="700" y="879" fill="#AAA" font-size="8.5" text-anchor="middle">Hobby plan · 12 serverless function limit · maxDuration 60s</text>
  <text x="1356" y="879" fill="#AAA" font-size="8.5" text-anchor="end">© 2026 Atlas · MIT License</text>
</svg>
